# xmcd
#
# Track frame offsets: 
#        150
#        20130
#        43932
#        67030
#        88916
#        111100
#        131860
#        149047
#        182530
#        202797
#        221431
#        239495
#
# Disc length: 3494 seconds
#
# Revision: 2
# Processed by: cddbd v1.4PL0 Copyright (c) Steve Scherf et al.
# Submitted via: ExactAudioCopy v0.90b4
#
DISCID=bd0da40c
DTITLE=Lucky Peterson - Beyond Cool
DYEAR=1994
DGENRE=Blues
TTITLE0=I'm Talking To You
TTITLE1=Count On Me
TTITLE2=Compared To What  
TTITLE3=Up From The Skies
TTITLE4=Your Love Is Amazing
TTITLE5=That's What It Ought To Be
TTITLE6=Pouring Money On A Drowning Love Affair
TTITLE7=Beyond Cool
TTITLE8=You Haven't Got Nothing
TTITLE9=Your Good Thing Is About To Run Out
TTITLE10=You Can't Fool Me
TTITLE11=Drivin' Wheel
EXTD=
EXTT0=
EXTT1=
EXTT2=
EXTT3=
EXTT4=
EXTT5=
EXTT6=
EXTT7=
EXTT8=
EXTT9=
EXTT10=
EXTT11=
PLAYORDER=
